<svg width="27" height="253" viewBox="0 0 27 253" fill="none" xmlns="http://www.w3.org/2000/svg">
<path d="M23 207.606C22.468 207.783 21.8007 208.021 20.998 208.32L20.998 212.786L23 213.486L23 217L12.836 213.08L12.836 207.928L23 203.98L23 207.606ZM18.814 209.118C17.834 209.473 16.854 209.837 15.874 210.21L14.964 210.546C15.8133 210.873 17.0967 211.353 18.814 211.988L18.814 209.118ZM12.836 190.143L23 189.051L23 192.677L15.748 192.901L23 194.301L23 197.969L15.804 199.397L23 199.607L23 203.233L12.836 202.141L12.836 197.381L19.458 196.163L12.836 195.099L12.836 190.143ZM21.796 187.934C21.32 187.617 20.8767 187.355 20.466 187.15C20.0553 186.935 19.5793 186.73 19.038 186.534C19.4207 185.871 19.7193 185.101 19.934 184.224C20.1487 183.347 20.256 182.53 20.256 181.774C20.256 180.999 20.1907 180.453 20.06 180.136C19.92 179.819 19.7707 179.66 19.612 179.66C19.0427 179.66 18.758 180.528 18.758 182.264C18.758 184.168 18.562 185.549 18.17 186.408C17.7687 187.267 17.1247 187.696 16.238 187.696C14.978 187.696 14.0493 187.173 13.452 186.128C12.8547 185.083 12.556 183.725 12.556 182.054C12.556 181.083 12.682 180.089 12.934 179.072C13.1767 178.045 13.5127 177.121 13.942 176.3C14.558 176.571 15.3093 176.855 16.196 177.154C16.3827 177.21 16.5227 177.257 16.616 177.294C16.2333 177.77 15.916 178.489 15.664 179.45C15.4027 180.411 15.272 181.261 15.272 181.998C15.272 182.885 15.3327 183.482 15.454 183.79C15.566 184.098 15.734 184.252 15.958 184.252C16.182 184.252 16.364 184.042 16.504 183.622C16.6347 183.193 16.7 182.577 16.7 181.774C16.7 179.795 16.9287 178.358 17.386 177.462C17.834 176.566 18.5247 176.118 19.458 176.118C20.7647 176.118 21.7073 176.594 22.286 177.546C22.8553 178.498 23.14 179.94 23.14 181.872C23.14 182.908 23.028 183.963 22.804 185.036C22.5707 186.109 22.2347 187.075 21.796 187.934ZM15.776 163.535C15.7293 165 15.7013 166.424 15.692 167.805L23 167.805L23 171.305L15.692 171.305C15.7013 172.696 15.7293 174.114 15.776 175.561L12.836 175.561L12.836 163.535L15.776 163.535ZM20.438 159.105C20.4193 155.558 20.368 152.987 20.284 151.391C20.6667 151.456 21.0633 151.498 21.474 151.517C21.8753 151.526 22.384 151.531 23 151.531L23 162.409C21.1893 162.334 19.4953 162.297 17.918 162.297C16.3407 162.297 14.6467 162.334 12.836 162.409L12.836 151.531L15.37 151.531L15.37 159.105L16.714 159.105C16.7233 158.657 16.728 157.994 16.728 157.117C16.728 155.633 16.7 154.097 16.644 152.511L19.052 152.511C18.996 154.097 18.968 155.633 18.968 157.117C18.968 157.994 18.9727 158.657 18.982 159.105L20.438 159.105ZM16.224 139.026C17.036 139.026 17.722 139.227 18.282 139.628C18.842 140.02 19.248 140.697 19.5 141.658C19.6493 141.546 19.766 141.467 19.85 141.42L23 139.152L23 142.96C22.2347 143.371 21.152 144.019 19.752 144.906L19.752 146.964L23 146.964L23 150.268C21.1893 150.193 19.4953 150.156 17.918 150.156C16.3407 150.156 14.6467 150.193 12.836 150.268L12.836 146.964L12.85 146.964L12.85 144.094C12.85 142.209 13.1533 140.893 13.76 140.146C14.3667 139.399 15.188 139.026 16.224 139.026ZM15.538 146.964L17.134 146.964L17.134 145.074C17.134 144.281 17.1107 143.683 17.064 143.282C17.008 142.871 16.924 142.587 16.812 142.428C16.7 142.269 16.5367 142.19 16.322 142.19C16.1167 142.19 15.958 142.265 15.846 142.414C15.734 142.563 15.6547 142.843 15.608 143.254C15.5613 143.665 15.538 144.271 15.538 145.074L15.538 146.964ZM12.682 133.429C12.682 131.674 12.8967 130.288 13.326 129.271C13.746 128.253 14.334 127.544 15.09 127.143C15.8367 126.732 16.756 126.527 17.848 126.527C18.884 126.527 19.7893 126.76 20.564 127.227C21.3387 127.693 21.9407 128.393 22.37 129.327C22.79 130.26 23 131.408 23 132.771C23 133.601 23 134.446 23 135.305C23 136.163 22.9953 137.031 22.986 137.909C21.1473 137.834 19.4347 137.797 17.848 137.797C16.2427 137.797 14.5673 137.834 12.822 137.909C12.7287 136.798 12.682 135.305 12.682 133.429ZM20.214 132.379C20.214 131.511 20.004 130.932 19.584 130.643C19.164 130.353 18.5853 130.209 17.848 130.209C17.1387 130.209 16.5647 130.363 16.126 130.671C15.6873 130.969 15.468 131.539 15.468 132.379C15.468 133.284 15.496 133.961 15.552 134.409L20.214 134.409L20.214 132.379ZM23 117.413C22.468 117.59 21.8007 117.828 20.998 118.127L20.998 122.593L23 123.293L23 126.807L12.836 122.887L12.836 117.735L23 113.787L23 117.413ZM18.814 118.925C17.834 119.279 16.854 119.643 15.874 120.017L14.964 120.353C15.8133 120.679 17.0967 121.16 18.814 121.795L18.814 118.925ZM12.836 99.9496L23 98.8576L23 102.484L15.748 102.708L23 104.108L23 107.776L15.804 109.204L23 109.414L23 113.04L12.836 111.948L12.836 107.188L19.458 105.97L12.836 104.906L12.836 99.9496Z" fill="#06B2D9"/>
<line x1="6.5" y1="253" x2="6.49999" y2="2.18557e-08" stroke="#06B2D9"/>
<circle cx="7.5" cy="245.5" r="7.5" transform="rotate(-90 7.5 245.5)" fill="#06B2D9"/>
</svg>
