<svg width="187" height="30" viewBox="0 0 187 30" fill="none" xmlns="http://www.w3.org/2000/svg">
<path d="M74.764 10.946C76.892 10.946 77.956 11.6227 77.956 12.976C77.956 13.6107 77.8113 14.152 77.522 14.6C77.2327 15.0387 76.7147 15.384 75.968 15.636C75.2213 15.8787 74.1853 16 72.86 16H66.56C66.6347 14.1893 66.672 12.4953 66.672 10.918C66.672 9.34067 66.6347 7.64667 66.56 5.836H69.85V5.85H72.832C73.9893 5.85 74.8993 5.948 75.562 6.144C76.234 6.33067 76.7053 6.606 76.976 6.97C77.256 7.334 77.396 7.796 77.396 8.356C77.396 8.92533 77.1953 9.434 76.794 9.882C76.402 10.3207 75.7253 10.6753 74.764 10.946ZM69.85 8.398V9.7H72.538C73.1167 9.7 73.518 9.64867 73.742 9.546C73.9753 9.44333 74.092 9.25667 74.092 8.986C74.092 8.77133 73.9707 8.622 73.728 8.538C73.4947 8.44467 73.098 8.398 72.538 8.398H69.85ZM72.538 13.438C73.0233 13.438 73.392 13.4193 73.644 13.382C73.9053 13.3353 74.092 13.2607 74.204 13.158C74.316 13.046 74.372 12.8967 74.372 12.71C74.372 12.4673 74.2367 12.2947 73.966 12.192C73.7047 12.08 73.2287 12.024 72.538 12.024H69.85V13.438H72.538ZM90.3118 9.224C90.3118 10.036 90.1111 10.722 89.7098 11.282C89.3178 11.842 88.6411 12.248 87.6798 12.5C87.7918 12.6493 87.8711 12.766 87.9178 12.85L90.1858 16H86.3778C85.9671 15.2347 85.3184 14.152 84.4318 12.752H82.3738V16H79.0698C79.1444 14.1893 79.1818 12.4953 79.1818 10.918C79.1818 9.34067 79.1444 7.64667 79.0698 5.836H82.3738V5.85H85.2438C87.1291 5.85 88.4451 6.15333 89.1918 6.76C89.9384 7.36667 90.3118 8.188 90.3118 9.224ZM82.3738 8.538V10.134H84.2638C85.0571 10.134 85.6544 10.1107 86.0558 10.064C86.4664 10.008 86.7511 9.924 86.9098 9.812C87.0684 9.7 87.1478 9.53667 87.1478 9.322C87.1478 9.11667 87.0731 8.958 86.9238 8.846C86.7744 8.734 86.4944 8.65467 86.0838 8.608C85.6731 8.56133 85.0664 8.538 84.2638 8.538H82.3738ZM99.7171 5.822H103.189V11.394C103.17 12.766 102.699 13.9 101.775 14.796C100.86 15.692 99.3158 16.14 97.1411 16.14C94.9385 16.14 93.4311 15.7153 92.6191 14.866C91.8071 14.0073 91.4105 12.8827 91.4291 11.492V5.822H94.9011V11.268C94.9011 11.6787 94.9291 12.0147 94.9851 12.276C95.0505 12.528 95.2465 12.766 95.5731 12.99C95.9091 13.214 96.4458 13.326 97.1831 13.326C97.9858 13.326 98.5738 13.214 98.9471 12.99C99.3205 12.7567 99.5398 12.5 99.6051 12.22C99.6798 11.94 99.7171 11.5807 99.7171 11.142V5.822ZM104.308 14.796C104.625 14.32 104.887 13.8767 105.092 13.466C105.307 13.0553 105.512 12.5793 105.708 12.038C106.371 12.4207 107.141 12.7193 108.018 12.934C108.895 13.1487 109.712 13.256 110.468 13.256C111.243 13.256 111.789 13.1907 112.106 13.06C112.423 12.92 112.582 12.7707 112.582 12.612C112.582 12.0427 111.714 11.758 109.978 11.758C108.074 11.758 106.693 11.562 105.834 11.17C104.975 10.7687 104.546 10.1247 104.546 9.238C104.546 7.978 105.069 7.04933 106.114 6.452C107.159 5.85467 108.517 5.556 110.188 5.556C111.159 5.556 112.153 5.682 113.17 5.934C114.197 6.17667 115.121 6.51267 115.942 6.942C115.671 7.558 115.387 8.30933 115.088 9.196C115.032 9.38267 114.985 9.52267 114.948 9.616C114.472 9.23333 113.753 8.916 112.792 8.664C111.831 8.40267 110.981 8.272 110.244 8.272C109.357 8.272 108.76 8.33267 108.452 8.454C108.144 8.566 107.99 8.734 107.99 8.958C107.99 9.182 108.2 9.364 108.62 9.504C109.049 9.63467 109.665 9.7 110.468 9.7C112.447 9.7 113.884 9.92867 114.78 10.386C115.676 10.834 116.124 11.5247 116.124 12.458C116.124 13.7647 115.648 14.7073 114.696 15.286C113.744 15.8553 112.302 16.14 110.37 16.14C109.334 16.14 108.279 16.028 107.206 15.804C106.133 15.5707 105.167 15.2347 104.308 14.796ZM117.242 14.796C117.559 14.32 117.82 13.8767 118.026 13.466C118.24 13.0553 118.446 12.5793 118.642 12.038C119.304 12.4207 120.074 12.7193 120.952 12.934C121.829 13.1487 122.646 13.256 123.402 13.256C124.176 13.256 124.722 13.1907 125.04 13.06C125.357 12.92 125.516 12.7707 125.516 12.612C125.516 12.0427 124.648 11.758 122.912 11.758C121.008 11.758 119.626 11.562 118.768 11.17C117.909 10.7687 117.48 10.1247 117.48 9.238C117.48 7.978 118.002 7.04933 119.048 6.452C120.093 5.85467 121.451 5.556 123.122 5.556C124.092 5.556 125.086 5.682 126.104 5.934C127.13 6.17667 128.054 6.51267 128.876 6.942C128.605 7.558 128.32 8.30933 128.022 9.196C127.966 9.38267 127.919 9.52267 127.882 9.616C127.406 9.23333 126.687 8.916 125.726 8.664C124.764 8.40267 123.915 8.272 123.178 8.272C122.291 8.272 121.694 8.33267 121.386 8.454C121.078 8.566 120.924 8.734 120.924 8.958C120.924 9.182 121.134 9.364 121.554 9.504C121.983 9.63467 122.599 9.7 123.402 9.7C125.38 9.7 126.818 9.92867 127.714 10.386C128.61 10.834 129.058 11.5247 129.058 12.458C129.058 13.7647 128.582 14.7073 127.63 15.286C126.678 15.8553 125.236 16.14 123.304 16.14C122.268 16.14 121.213 16.028 120.14 15.804C119.066 15.5707 118.1 15.2347 117.242 14.796ZM133.479 13.438C137.026 13.4193 139.597 13.368 141.193 13.284C141.128 13.6667 141.086 14.0633 141.067 14.474C141.058 14.8753 141.053 15.384 141.053 16H130.175C130.25 14.1893 130.287 12.4953 130.287 10.918C130.287 9.34067 130.25 7.64667 130.175 5.836H141.053V8.37H133.479V9.714C133.927 9.72333 134.59 9.728 135.467 9.728C136.951 9.728 138.487 9.7 140.073 9.644V12.052C138.487 11.996 136.951 11.968 135.467 11.968C134.59 11.968 133.927 11.9727 133.479 11.982V13.438ZM145.732 13.172C148.439 13.1533 150.679 13.1067 152.452 13.032C152.331 13.508 152.256 13.9653 152.228 14.404C152.2 14.8427 152.186 15.3747 152.186 16H142.316C142.391 14.1893 142.428 12.4953 142.428 10.918C142.428 9.34067 142.391 7.64667 142.316 5.836H145.732V13.172ZM153.007 14.796C153.325 14.32 153.586 13.8767 153.791 13.466C154.006 13.0553 154.211 12.5793 154.407 12.038C155.07 12.4207 155.84 12.7193 156.717 12.934C157.595 13.1487 158.411 13.256 159.167 13.256C159.942 13.256 160.488 13.1907 160.805 13.06C161.123 12.92 161.281 12.7707 161.281 12.612C161.281 12.0427 160.413 11.758 158.677 11.758C156.773 11.758 155.392 11.562 154.533 11.17C153.675 10.7687 153.245 10.1247 153.245 9.238C153.245 7.978 153.768 7.04933 154.813 6.452C155.859 5.85467 157.217 5.556 158.887 5.556C159.858 5.556 160.852 5.682 161.869 5.934C162.896 6.17667 163.82 6.51267 164.641 6.942C164.371 7.558 164.086 8.30933 163.787 9.196C163.731 9.38267 163.685 9.52267 163.647 9.616C163.171 9.23333 162.453 8.916 161.491 8.664C160.53 8.40267 159.681 8.272 158.943 8.272C158.057 8.272 157.459 8.33267 157.151 8.454C156.843 8.566 156.689 8.734 156.689 8.958C156.689 9.182 156.899 9.364 157.319 9.504C157.749 9.63467 158.365 9.7 159.167 9.7C161.146 9.7 162.583 9.92867 163.479 10.386C164.375 10.834 164.823 11.5247 164.823 12.458C164.823 13.7647 164.347 14.7073 163.395 15.286C162.443 15.8553 161.001 16.14 159.069 16.14C158.033 16.14 156.979 16.028 155.905 15.804C154.832 15.5707 153.866 15.2347 153.007 14.796Z" fill="#F2A950"/>
<line x1="-0.00279325" y1="22.5" x2="178.997" y2="21.5" stroke="#F2A950"/>
<circle cx="179.5" cy="22.5" r="7.5" fill="#F2A950"/>
</svg>
