<svg width="116" height="33" viewBox="0 0 116 33" fill="none" xmlns="http://www.w3.org/2000/svg">
<path d="M23.72 16.14C21.6107 16.14 20.0567 15.692 19.058 14.796C18.0593 13.9 17.56 12.6213 17.56 10.96C17.56 9.28933 18.0593 7.96867 19.058 6.998C20.0567 6.02733 21.6107 5.542 23.72 5.542C26.6693 5.542 28.6433 6.55467 29.642 8.58C28.802 8.86933 27.8173 9.30333 26.688 9.882C26.4173 9.35933 25.988 8.972 25.4 8.72C24.8213 8.468 24.2287 8.342 23.622 8.342C22.726 8.342 22.0587 8.58 21.62 9.056C21.1813 9.52267 20.962 10.1013 20.962 10.792C20.962 11.5387 21.1953 12.15 21.662 12.626C22.138 13.0927 22.8613 13.326 23.832 13.326C24.6067 13.326 25.2227 13.2 25.68 12.948C26.1373 12.6867 26.4733 12.276 26.688 11.716C27.4533 12.1267 28.4333 12.5887 29.628 13.102C29.1613 14.2313 28.382 15.02 27.29 15.468C26.198 15.916 25.008 16.14 23.72 16.14ZM36.5732 16.14C34.4359 16.14 32.8632 15.678 31.8552 14.754C30.8472 13.8207 30.3432 12.514 30.3432 10.834C30.3432 9.17267 30.8425 7.87533 31.8412 6.942C32.8492 6.00867 34.4265 5.542 36.5732 5.542C38.7292 5.542 40.3065 6.00867 41.3052 6.942C42.3132 7.87533 42.8172 9.17267 42.8172 10.834C42.8172 12.5233 42.3179 13.83 41.3192 14.754C40.3205 15.678 38.7385 16.14 36.5732 16.14ZM36.5732 13.284C37.6092 13.284 38.3559 13.088 38.8132 12.696C39.2705 12.2947 39.4992 11.674 39.4992 10.834C39.4992 10.0127 39.2705 9.40133 38.8132 9C38.3559 8.59867 37.6092 8.398 36.5732 8.398C35.5465 8.398 34.8045 8.59867 34.3472 9C33.8899 9.40133 33.6612 10.0127 33.6612 10.834C33.6612 11.6647 33.8899 12.2807 34.3472 12.682C34.8045 13.0833 35.5465 13.284 36.5732 13.284ZM47.349 13.172C50.0557 13.1533 52.2957 13.1067 54.069 13.032C53.9477 13.508 53.873 13.9653 53.845 14.404C53.817 14.8427 53.803 15.3747 53.803 16H43.933C44.0077 14.1893 44.045 12.4953 44.045 10.918C44.045 9.34067 44.0077 7.64667 43.933 5.836H47.349V13.172ZM60.7177 16.14C58.5804 16.14 57.0077 15.678 55.9997 14.754C54.9917 13.8207 54.4877 12.514 54.4877 10.834C54.4877 9.17267 54.9871 7.87533 55.9857 6.942C56.9937 6.00867 58.5711 5.542 60.7177 5.542C62.8737 5.542 64.4511 6.00867 65.4497 6.942C66.4577 7.87533 66.9617 9.17267 66.9617 10.834C66.9617 12.5233 66.4624 13.83 65.4637 14.754C64.4651 15.678 62.8831 16.14 60.7177 16.14ZM60.7177 13.284C61.7537 13.284 62.5004 13.088 62.9577 12.696C63.4151 12.2947 63.6437 11.674 63.6437 10.834C63.6437 10.0127 63.4151 9.40133 62.9577 9C62.5004 8.59867 61.7537 8.398 60.7177 8.398C59.6911 8.398 58.9491 8.59867 58.4917 9C58.0344 9.40133 57.8057 10.0127 57.8057 10.834C57.8057 11.6647 58.0344 12.2807 58.4917 12.682C58.9491 13.0833 59.6911 13.284 60.7177 13.284ZM73.8456 10.204H79.8236V16H77.3596L77.0656 13.522C76.7856 14.4087 76.2862 15.0667 75.5676 15.496C74.8489 15.9253 73.9716 16.14 72.9356 16.14C71.9929 16.14 71.1529 15.93 70.4156 15.51C69.6876 15.09 69.1136 14.488 68.6936 13.704C68.2829 12.92 68.0776 12.0053 68.0776 10.96C68.0776 9.28933 68.5769 7.96867 69.5756 6.998C70.5742 6.02733 72.1282 5.542 74.2376 5.542C75.4416 5.542 76.5009 5.738 77.4156 6.13C78.3396 6.522 79.1236 7.12867 79.7676 7.95C79.3476 8.16467 78.5262 8.594 77.3036 9.238L76.9536 9.434C76.5896 9.07 76.1649 8.79933 75.6796 8.622C75.1942 8.43533 74.6809 8.342 74.1396 8.342C73.2436 8.342 72.5762 8.58 72.1376 9.056C71.6989 9.52267 71.4796 10.1013 71.4796 10.792C71.4796 11.5387 71.7129 12.1407 72.1796 12.598C72.6556 13.0553 73.3789 13.284 74.3496 13.284C74.7696 13.284 75.1756 13.2233 75.5676 13.102C75.9689 12.9807 76.3049 12.7707 76.5756 12.472H73.8456V10.204ZM92.6888 5.85C92.6235 7.42733 92.5908 9.11667 92.5908 10.918C92.5908 12.7287 92.6235 14.4227 92.6888 16H87.6768L84.2888 8.356L84.5408 16H80.9428C81.0175 14.1893 81.0548 12.4953 81.0548 10.918C81.0548 9.35 81.0175 7.66067 80.9428 5.85H86.0948L89.4968 13.704L89.2588 5.85H92.6888ZM97.112 13.438C100.659 13.4193 103.23 13.368 104.826 13.284C104.761 13.6667 104.719 14.0633 104.7 14.474C104.691 14.8753 104.686 15.384 104.686 16H93.808C93.8827 14.1893 93.92 12.4953 93.92 10.918C93.92 9.34067 93.8827 7.64667 93.808 5.836H104.686V8.37H97.112V9.714C97.56 9.72333 98.2227 9.728 99.1 9.728C100.584 9.728 102.119 9.7 103.706 9.644V12.052C102.119 11.996 100.584 11.968 99.1 11.968C98.2227 11.968 97.56 11.9727 97.112 11.982V13.438Z" fill="#F21F0C"/>
<line y1="24.5" x2="116" y2="24.5" stroke="#F21F0C"/>
<circle cx="7.5" cy="25.5" r="7.5" fill="#F21F0C"/>
</svg>
