<svg width="28" height="440" viewBox="0 0 28 440" fill="none" xmlns="http://www.w3.org/2000/svg">
<path d="M5.85 401.084C5.85 399.227 6.18133 397.934 6.844 397.206C7.49733 396.478 8.42133 396.114 9.616 396.114C10.4373 396.114 11.1373 396.259 11.716 396.548C12.2853 396.837 12.7333 397.346 13.06 398.074C13.3773 398.802 13.536 399.805 13.536 401.084L13.536 403.996L16 403.996L16 407.44C14.1893 407.365 12.4953 407.328 10.918 407.328C9.34067 407.328 7.64667 407.365 5.836 407.44L5.836 403.996L5.85 403.996L5.85 401.084ZM10.834 402.064C10.834 401.289 10.806 400.711 10.75 400.328C10.6847 399.936 10.5727 399.665 10.414 399.516C10.2553 399.357 10.022 399.278 9.714 399.278C9.406 399.278 9.17733 399.353 9.028 399.502C8.86933 399.642 8.762 399.908 8.706 400.3C8.65 400.683 8.622 401.271 8.622 402.064L8.622 403.996L10.834 403.996L10.834 402.064ZM16 387.559C15.468 387.736 14.8007 387.974 13.998 388.273L13.998 392.739L16 393.439L16 396.953L5.836 393.033L5.836 387.881L16 383.933L16 387.559ZM11.814 389.071C10.834 389.426 9.854 389.79 8.874 390.163L7.964 390.499C8.81333 390.826 10.0967 391.306 11.814 391.941L11.814 389.071ZM9.224 371.944C10.036 371.944 10.722 372.145 11.282 372.546C11.842 372.938 12.248 373.615 12.5 374.576C12.6493 374.464 12.766 374.385 12.85 374.338L16 372.07L16 375.878C15.2347 376.289 14.152 376.937 12.752 377.824L12.752 379.882L16 379.882L16 383.186C14.1893 383.111 12.4953 383.074 10.918 383.074C9.34067 383.074 7.64667 383.111 5.836 383.186L5.836 379.882L5.85 379.882L5.85 377.012C5.85 375.127 6.15333 373.811 6.76 373.064C7.36667 372.317 8.188 371.944 9.224 371.944ZM8.538 379.882L10.134 379.882L10.134 377.992C10.134 377.199 10.1107 376.601 10.064 376.2C10.008 375.789 9.924 375.505 9.812 375.346C9.7 375.187 9.53667 375.108 9.322 375.108C9.11667 375.108 8.958 375.183 8.846 375.332C8.734 375.481 8.65467 375.761 8.608 376.172C8.56133 376.583 8.538 377.189 8.538 377.992L8.538 379.882ZM8.622 362.693C8.566 363.803 8.53333 364.625 8.524 365.157L13.312 365.157C13.3027 364.615 13.27 363.794 13.214 362.693L16 362.693L16 370.827L13.214 370.827C13.27 369.753 13.3027 368.937 13.312 368.377L8.524 368.377C8.53333 368.937 8.566 369.753 8.622 370.827L5.836 370.827L5.836 362.693L8.622 362.693ZM14.796 361.571C14.32 361.254 13.8767 360.992 13.466 360.787C13.0553 360.572 12.5793 360.367 12.038 360.171C12.4207 359.508 12.7193 358.738 12.934 357.861C13.1487 356.984 13.256 356.167 13.256 355.411C13.256 354.636 13.1907 354.09 13.06 353.773C12.92 353.456 12.7707 353.297 12.612 353.297C12.0427 353.297 11.758 354.165 11.758 355.901C11.758 357.805 11.562 359.186 11.17 360.045C10.7687 360.904 10.1247 361.333 9.238 361.333C7.978 361.333 7.04933 360.81 6.452 359.765C5.85467 358.72 5.556 357.362 5.556 355.691C5.556 354.72 5.682 353.726 5.934 352.709C6.17667 351.682 6.51267 350.758 6.942 349.937C7.558 350.208 8.30933 350.492 9.196 350.791C9.38267 350.847 9.52267 350.894 9.616 350.931C9.23333 351.407 8.916 352.126 8.664 353.087C8.40267 354.048 8.272 354.898 8.272 355.635C8.272 356.522 8.33267 357.119 8.454 357.427C8.566 357.735 8.734 357.889 8.958 357.889C9.182 357.889 9.364 357.679 9.504 357.259C9.63467 356.83 9.7 356.214 9.7 355.411C9.7 353.432 9.92867 351.995 10.386 351.099C10.834 350.203 11.5247 349.755 12.458 349.755C13.7647 349.755 14.7073 350.231 15.286 351.183C15.8553 352.135 16.14 353.577 16.14 355.509C16.14 356.545 16.028 357.6 15.804 358.673C15.5707 359.746 15.2347 360.712 14.796 361.571Z" fill="#EC884C"/>
<line x1="20.5" y1="-0.00115739" x2="21.5" y2="431.999" stroke="#F0D8CA" stroke-opacity="0.4"/>
<circle cx="20.5" cy="432.5" r="7.5" transform="rotate(90 20.5 432.5)" fill="#EC884C"/>
</svg>
